<svg width="233" height="215" viewBox="0 0 233 215" fill="none" xmlns="http://www.w3.org/2000/svg">
<path d="M67.8125 145.534C55.7306 145.534 46.4375 156.715 46.4375 169.818C46.4376 183.033 55.7243 194.222 67.8125 194.222C79.9008 194.222 89.1874 183.033 89.1875 169.818C89.1875 156.715 79.8945 145.534 67.8125 145.534ZM164.688 145.534C152.606 145.534 143.312 156.715 143.312 169.818C143.313 183.033 152.599 194.222 164.688 194.222C176.776 194.222 186.062 183.033 186.062 169.818C186.062 156.715 176.769 145.534 164.688 145.534ZM116.25 51.6309C107.838 51.6309 100.135 54.2569 94.4932 58.5996C88.8487 62.9445 85.1875 69.089 85.1875 76.0342C85.1875 82.9257 88.8539 89.0397 94.4951 93.3662C100.136 97.6921 107.838 100.318 116.25 100.318C124.662 100.318 132.364 97.6921 138.005 93.3662C143.646 89.0397 147.312 82.9257 147.312 76.0342C147.312 69.089 143.652 62.9445 138.008 58.5996C132.366 54.2567 124.662 51.6309 116.25 51.6309ZM116.25 64.5684C120.596 64.5684 123.938 67.8733 123.938 71.5059C123.937 75.1384 120.596 78.4434 116.25 78.4434C111.904 78.4433 108.563 75.1383 108.562 71.5059C108.562 67.8733 111.904 64.5684 116.25 64.5684ZM55.6045 55.4551L54.0059 55.127C40.8522 52.4301 31.0625 41.5867 31.0625 28.8438C31.0627 14.248 44.092 2.00586 60.3213 2.00586C68.7393 2.00593 76.4817 5.27498 81.5039 10.3496L82.5967 11.4541L83.9365 10.6689C93.5846 5.01188 104.794 2.00003 116.25 2C127.706 2 138.915 5.01185 148.563 10.6689L149.904 11.4541L150.997 10.3496C156.019 5.2751 163.762 2.00586 172.18 2.00586C188.409 2.00604 201.437 14.2481 201.438 28.8438C201.438 41.7082 191.648 52.541 178.385 55.123L176.767 55.4385V57.8018C176.767 69.8317 172.547 80.9683 165.43 90.1846L163.91 92.1514L166.157 93.2148C176.02 97.8811 184.175 103.916 190.162 110.937L191.117 112.058L192.471 111.478C195.836 110.036 199.572 109.256 203.438 109.256C218.634 109.256 230.5 120.426 230.5 134.068C230.5 147.711 218.634 158.881 203.438 158.881H200.269L200.694 161.236C201.188 163.969 201.438 166.948 201.438 169.818C201.437 193.66 184.765 212.506 164.688 212.506C152.458 212.506 141.552 205.47 134.741 194.503L134.06 193.406L132.78 193.575C127.446 194.278 121.979 194.631 116.25 194.631C110.521 194.631 105.054 194.278 99.7197 193.575L98.4404 193.406L97.7598 194.503C90.9494 205.47 80.0419 212.506 67.8125 212.506C47.7353 212.506 31.0626 193.66 31.0625 169.818C31.0625 166.948 31.3119 163.969 31.8057 161.236L32.2314 158.881H29.0625C14.104 158.881 2.37186 148.057 2.00879 134.706L2 134.068V134.061C1.98486 129.96 3.08467 125.912 5.21094 122.286C7.33801 118.659 10.4288 115.565 14.2139 113.3C17.9995 111.034 22.3521 109.675 26.873 109.356C31.3941 109.038 35.9255 109.773 40.0488 111.486L41.3936 112.045L42.3389 110.937C48.3276 103.915 56.484 97.8773 66.2227 93.21L68.4473 92.1436L66.9443 90.1885C59.9488 81.0838 55.6045 69.8256 55.6045 57.8018V55.4551Z" stroke="#70BCEF" stroke-width="4"/>
</svg>
